<svg viewBox="0 0 32 33" fill="none" xmlns="http://www.w3.org/2000/svg">
<path d="M28.415 4.08497C28.1635 3.83363 27.8496 3.65388 27.5055 3.56424C27.1614 3.4746 26.7997 3.4783 26.4575 3.57497H26.4388L2.44627 10.855C2.05676 10.9672 1.71056 11.1952 1.45354 11.5086C1.19652 11.8221 1.04082 12.2063 1.00707 12.6102C0.973316 13.0142 1.06311 13.4188 1.26454 13.7706C1.46598 14.1224 1.76954 14.4046 2.13502 14.58L12.75 19.75L17.9125 30.3587C18.0731 30.7014 18.3284 30.9909 18.6482 31.1931C18.9681 31.3954 19.3391 31.5018 19.7175 31.5C19.775 31.5 19.8325 31.4975 19.89 31.4925C20.2936 31.4598 20.6776 31.3044 20.9904 31.0473C21.3032 30.7901 21.5299 30.4434 21.64 30.0537L28.915 6.06122C28.915 6.05497 28.915 6.04872 28.915 6.04247C29.0129 5.70117 29.0182 5.33996 28.9304 4.99594C28.8425 4.65192 28.6646 4.3375 28.415 4.08497ZM19.7288 29.4812L19.7225 29.4987V29.49L14.715 19.2025L20.715 13.2025C20.8946 13.0134 20.9933 12.7617 20.99 12.5009C20.9866 12.2401 20.8815 11.991 20.6971 11.8066C20.5127 11.6222 20.2636 11.5171 20.0028 11.5138C19.7421 11.5104 19.4903 11.6091 19.3013 11.7887L13.3013 17.7887L3.01002 12.7812H3.00127H3.01877L27 5.49997L19.7288 29.4812Z" fill="currentColor"/>
</svg>
